<?xml version="1.0" encoding="UTF-8" standalone="no"?>
<!-- Generator: Adobe Illustrator 16.0.0, SVG Export Plug-In . SVG Version: 6.00 Build 0)  -->

<svg
   xmlns:dc="http://purl.org/dc/elements/1.1/"
   xmlns:cc="http://creativecommons.org/ns#"
   xmlns:rdf="http://www.w3.org/1999/02/22-rdf-syntax-ns#"
   xmlns:svg="http://www.w3.org/2000/svg"
   xmlns="http://www.w3.org/2000/svg"
   xmlns:xlink="http://www.w3.org/1999/xlink"
   xmlns:sodipodi="http://sodipodi.sourceforge.net/DTD/sodipodi-0.dtd"
   xmlns:inkscape="http://www.inkscape.org/namespaces/inkscape"
   version="1.1"
   id="Layer_1"
   x="0px"
   y="0px"
   width="395.72241"
   height="509.35959"
   viewBox="0 0 395.72242 509.35959"
   enable-background="new 0 0 512 512"
   xml:space="preserve"
   inkscape:version="0.91 r13725"
   sodipodi:docname="lock-2.svg.2017_12_20_23_39_42.0 (copy).svg"><metadata
     id="metadata3398"><rdf:RDF><cc:Work
         rdf:about=""><dc:format>image/svg+xml</dc:format><dc:type
           rdf:resource="http://purl.org/dc/dcmitype/StillImage" /><dc:title></dc:title></cc:Work></rdf:RDF></metadata><defs
     id="defs3396"><linearGradient
       inkscape:collect="always"
       id="linearGradient4770"><stop
         style="stop-color:#000000;stop-opacity:1;"
         offset="0"
         id="stop4772" /><stop
         style="stop-color:#000000;stop-opacity:0;"
         offset="1"
         id="stop4774" /></linearGradient><linearGradient
       inkscape:collect="always"
       id="linearGradient4678"><stop
         style="stop-color:#06262e;stop-opacity:1;"
         offset="0"
         id="stop4680" /><stop
         style="stop-color:#06262e;stop-opacity:0;"
         offset="1"
         id="stop4682" /></linearGradient><clipPath
       clipPathUnits="userSpaceOnUse"
       id="clipPath3545"><path
         style="display:inline;fill:#ffffff"
         inkscape:connector-curvature="0"
         d="m 1500.0737,1613.6999 0,-234.2811 c 0,-172.2016 -140.0952,-312.3749 -312.3748,-312.3749 -172.2406,0 -312.37491,140.1733 -312.37491,312.3749 l 0,234.2811 c -86.25452,0 -156.18745,69.9329 -156.18745,156.1875 l 0,390.4686 c 0,86.2545 69.93293,156.1874 156.18745,156.1874 l 624.74971,0 c 86.2546,0 156.1875,-69.9329 156.1875,-156.1874 l 0,-390.4686 c 0,-86.2546 -69.9329,-156.1875 -156.1875,-156.1875 z m -273.328,378.4959 0,129.1133 c 0,21.5832 -17.4637,39.0469 -39.0468,39.0469 -21.5832,0 -39.0469,-17.4637 -39.0469,-39.0469 l 0,-129.1133 c -22.9181,-13.5761 -39.0469,-37.5216 -39.0469,-66.121 0,-43.1663 34.9665,-78.0937 78.0938,-78.0937 43.1272,0 78.0937,34.9298 78.0937,78.0937 0,28.5994 -16.1288,52.5449 -39.0469,66.121 z m 117.1406,-378.4959 -312.3749,0 0,-234.2811 c 0,-86.1789 70.0477,-156.1875 156.1875,-156.1875 86.1007,0 156.1874,70.011 156.1874,156.1875 l 0,234.2811 z"
         id="path3547" /></clipPath><clipPath
       clipPathUnits="userSpaceOnUse"
       id="clipPath4755"><path
         style="display:inline;opacity:0.92099998;fill:#000000;fill-opacity:1"
         inkscape:connector-curvature="0"
         d="m 368.15635,223.16612 0,-96 c 0,-70.561988 -57.406,-127.99998823 -128,-127.99998823 -70.578,0 -128,57.43800023 -128,127.99998823 l 0,96 c -35.343998,0 -63.999998,28.656 -63.999998,64 l 0,160 c 0,35.344 28.656,64 63.999998,64 l 256,0 c 35.344,0 64,-28.656 64,-64 l 0,-160 c 0,-35.344 -28.656,-64 -64,-64 z m -112,155.094 0,52.906 c 0,8.844 -7.156,16 -16,16 -8.844,0 -16,-7.156 -16,-16 l 0,-52.906 c -9.391,-5.563 -16,-15.375 -16,-27.094 0,-17.688 14.328,-32 32,-32 17.672,0 32,14.313 32,32 0,11.719 -6.609,21.531 -16,27.094 z m 48,-155.094 -128,0 0,-96 c 0,-35.312991 28.703,-63.999988 64,-63.999988 35.281,0 64,28.687997 64,63.999988 l 0,96 z"
         id="path4757" /></clipPath><clipPath
       clipPathUnits="userSpaceOnUse"
       id="clipPath4759"><path
         style="display:inline;opacity:0.92099998;fill:#000000;fill-opacity:1"
         inkscape:connector-curvature="0"
         d="m 368.15635,223.16612 0,-96 c 0,-70.561988 -57.406,-127.99998823 -128,-127.99998823 -70.578,0 -128,57.43800023 -128,127.99998823 l 0,96 c -35.343998,0 -63.999998,28.656 -63.999998,64 l 0,160 c 0,35.344 28.656,64 63.999998,64 l 256,0 c 35.344,0 64,-28.656 64,-64 l 0,-160 c 0,-35.344 -28.656,-64 -64,-64 z m -112,155.094 0,52.906 c 0,8.844 -7.156,16 -16,16 -8.844,0 -16,-7.156 -16,-16 l 0,-52.906 c -9.391,-5.563 -16,-15.375 -16,-27.094 0,-17.688 14.328,-32 32,-32 17.672,0 32,14.313 32,32 0,11.719 -6.609,21.531 -16,27.094 z m 48,-155.094 -128,0 0,-96 c 0,-35.312991 28.703,-63.999988 64,-63.999988 35.281,0 64,28.687997 64,63.999988 l 0,96 z"
         id="path4761" /></clipPath><clipPath
       clipPathUnits="userSpaceOnUse"
       id="clipPath4763"><path
         style="display:inline;opacity:0.92099998;fill:#000000;fill-opacity:1"
         inkscape:connector-curvature="0"
         d="m 368.15635,223.16612 0,-96 c 0,-70.561988 -57.406,-127.99998823 -128,-127.99998823 -70.578,0 -128,57.43800023 -128,127.99998823 l 0,96 c -35.343998,0 -63.999998,28.656 -63.999998,64 l 0,160 c 0,35.344 28.656,64 63.999998,64 l 256,0 c 35.344,0 64,-28.656 64,-64 l 0,-160 c 0,-35.344 -28.656,-64 -64,-64 z m -112,155.094 0,52.906 c 0,8.844 -7.156,16 -16,16 -8.844,0 -16,-7.156 -16,-16 l 0,-52.906 c -9.391,-5.563 -16,-15.375 -16,-27.094 0,-17.688 14.328,-32 32,-32 17.672,0 32,14.313 32,32 0,11.719 -6.609,21.531 -16,27.094 z m 48,-155.094 -128,0 0,-96 c 0,-35.312991 28.703,-63.999988 64,-63.999988 35.281,0 64,28.687997 64,63.999988 l 0,96 z"
         id="path4765" /></clipPath><clipPath
       clipPathUnits="userSpaceOnUse"
       id="clipPath4786"><path
         style="display:inline;opacity:0.92099998;fill:#000000;fill-opacity:1"
         inkscape:connector-curvature="0"
         d="m 368.15641,223.1595 0,-96 c 0,-70.561989 -57.406,-127.99998921 -128,-127.99998921 -70.578,0 -128,57.43800021 -128,127.99998921 l 0,96 c -35.343989,0 -63.999989,28.656 -63.999989,64 l 0,160 c 0,35.344 28.656,64 63.999989,64 l 256,0 c 35.344,0 64,-28.656 64,-64 l 0,-160 c 0,-35.344 -28.656,-64 -64,-64 z m -112,155.09401 0,52.906 c 0,8.844 -7.156,16 -16,16 -8.844,0 -16,-7.156 -16,-16 l 0,-52.906 c -9.391,-5.563 -16,-15.375 -16,-27.094 0,-17.688 14.328,-32 32,-32 17.672,0 32,14.31299 32,32 0,11.719 -6.609,21.531 -16,27.094 z m 48,-155.094 -128,0 0,-96 c 0,-35.312999 28.703,-63.999999 64,-63.999999 35.281,0 64,28.688 64,63.999999 l 0,96 z"
         id="path4788" /></clipPath><clipPath
       clipPathUnits="userSpaceOnUse"
       id="clipPath4786-7"><path
         style="display:inline;opacity:0.92099998;fill:#000000;fill-opacity:1"
         inkscape:connector-curvature="0"
         d="m 368.15641,223.1595 0,-96 c 0,-70.561989 -57.406,-127.99998921 -128,-127.99998921 -70.578,0 -128,57.43800021 -128,127.99998921 l 0,96 c -35.343989,0 -63.999989,28.656 -63.999989,64 l 0,160 c 0,35.344 28.656,64 63.999989,64 l 256,0 c 35.344,0 64,-28.656 64,-64 l 0,-160 c 0,-35.344 -28.656,-64 -64,-64 z m -112,155.09401 0,52.906 c 0,8.844 -7.156,16 -16,16 -8.844,0 -16,-7.156 -16,-16 l 0,-52.906 c -9.391,-5.563 -16,-15.375 -16,-27.094 0,-17.688 14.328,-32 32,-32 17.672,0 32,14.31299 32,32 0,11.719 -6.609,21.531 -16,27.094 z m 48,-155.094 -128,0 0,-96 c 0,-35.312999 28.703,-63.999999 64,-63.999999 35.281,0 64,28.688 64,63.999999 l 0,96 z"
         id="path4788-5" /></clipPath><linearGradient
       inkscape:collect="always"
       xlink:href="#linearGradient4770"
       id="linearGradient3412"
       gradientUnits="userSpaceOnUse"
       x1="-101.418"
       y1="507.2829"
       x2="686.34039"
       y2="-79.998085" /><clipPath
       clipPathUnits="userSpaceOnUse"
       id="clipPath4763-5"><path
         style="display:inline;opacity:0.92099998;fill:#000000;fill-opacity:1"
         inkscape:connector-curvature="0"
         d="m 368.15635,223.16612 0,-96 c 0,-70.561988 -57.406,-127.99998823 -128,-127.99998823 -70.578,0 -128,57.43800023 -128,127.99998823 l 0,96 c -35.343998,0 -63.999998,28.656 -63.999998,64 l 0,160 c 0,35.344 28.656,64 63.999998,64 l 256,0 c 35.344,0 64,-28.656 64,-64 l 0,-160 c 0,-35.344 -28.656,-64 -64,-64 z m -112,155.094 0,52.906 c 0,8.844 -7.156,16 -16,16 -8.844,0 -16,-7.156 -16,-16 l 0,-52.906 c -9.391,-5.563 -16,-15.375 -16,-27.094 0,-17.688 14.328,-32 32,-32 17.672,0 32,14.313 32,32 0,11.719 -6.609,21.531 -16,27.094 z m 48,-155.094 -128,0 0,-96 c 0,-35.312991 28.703,-63.999988 64,-63.999988 35.281,0 64,28.687997 64,63.999988 l 0,96 z"
         id="path4765-6" /></clipPath><clipPath
       clipPathUnits="userSpaceOnUse"
       id="clipPath4759-2"><path
         style="display:inline;opacity:0.92099998;fill:#000000;fill-opacity:1"
         inkscape:connector-curvature="0"
         d="m 368.15635,223.16612 0,-96 c 0,-70.561988 -57.406,-127.99998823 -128,-127.99998823 -70.578,0 -128,57.43800023 -128,127.99998823 l 0,96 c -35.343998,0 -63.999998,28.656 -63.999998,64 l 0,160 c 0,35.344 28.656,64 63.999998,64 l 256,0 c 35.344,0 64,-28.656 64,-64 l 0,-160 c 0,-35.344 -28.656,-64 -64,-64 z m -112,155.094 0,52.906 c 0,8.844 -7.156,16 -16,16 -8.844,0 -16,-7.156 -16,-16 l 0,-52.906 c -9.391,-5.563 -16,-15.375 -16,-27.094 0,-17.688 14.328,-32 32,-32 17.672,0 32,14.313 32,32 0,11.719 -6.609,21.531 -16,27.094 z m 48,-155.094 -128,0 0,-96 c 0,-35.312991 28.703,-63.999988 64,-63.999988 35.281,0 64,28.687997 64,63.999988 l 0,96 z"
         id="path4761-9" /></clipPath><clipPath
       clipPathUnits="userSpaceOnUse"
       id="clipPath4755-7"><path
         style="display:inline;opacity:0.92099998;fill:#000000;fill-opacity:1"
         inkscape:connector-curvature="0"
         d="m 368.15635,223.16612 0,-96 c 0,-70.561988 -57.406,-127.99998823 -128,-127.99998823 -70.578,0 -128,57.43800023 -128,127.99998823 l 0,96 c -35.343998,0 -63.999998,28.656 -63.999998,64 l 0,160 c 0,35.344 28.656,64 63.999998,64 l 256,0 c 35.344,0 64,-28.656 64,-64 l 0,-160 c 0,-35.344 -28.656,-64 -64,-64 z m -112,155.094 0,52.906 c 0,8.844 -7.156,16 -16,16 -8.844,0 -16,-7.156 -16,-16 l 0,-52.906 c -9.391,-5.563 -16,-15.375 -16,-27.094 0,-17.688 14.328,-32 32,-32 17.672,0 32,14.313 32,32 0,11.719 -6.609,21.531 -16,27.094 z m 48,-155.094 -128,0 0,-96 c 0,-35.312991 28.703,-63.999988 64,-63.999988 35.281,0 64,28.687997 64,63.999988 l 0,96 z"
         id="path4757-0" /></clipPath><linearGradient
       inkscape:collect="always"
       xlink:href="#linearGradient4678"
       id="linearGradient3461"
       gradientUnits="userSpaceOnUse"
       gradientTransform="translate(5.003257,-10.006514)"
       x1="0"
       y1="473.64169"
       x2="585.3811"
       y2="5.0032578" /><clipPath
       clipPathUnits="userSpaceOnUse"
       id="clipPath3545-0"><path
         style="display:inline;fill:#ffffff"
         inkscape:connector-curvature="0"
         d="m 1500.0737,1613.6999 0,-234.2811 c 0,-172.2016 -140.0952,-312.3749 -312.3748,-312.3749 -172.2406,0 -312.37491,140.1733 -312.37491,312.3749 l 0,234.2811 c -86.25452,0 -156.18745,69.9329 -156.18745,156.1875 l 0,390.4686 c 0,86.2545 69.93293,156.1874 156.18745,156.1874 l 624.74971,0 c 86.2546,0 156.1875,-69.9329 156.1875,-156.1874 l 0,-390.4686 c 0,-86.2546 -69.9329,-156.1875 -156.1875,-156.1875 z m -273.328,378.4959 0,129.1133 c 0,21.5832 -17.4637,39.0469 -39.0468,39.0469 -21.5832,0 -39.0469,-17.4637 -39.0469,-39.0469 l 0,-129.1133 c -22.9181,-13.5761 -39.0469,-37.5216 -39.0469,-66.121 0,-43.1663 34.9665,-78.0937 78.0938,-78.0937 43.1272,0 78.0937,34.9298 78.0937,78.0937 0,28.5994 -16.1288,52.5449 -39.0469,66.121 z m 117.1406,-378.4959 -312.3749,0 0,-234.2811 c 0,-86.1789 70.0477,-156.1875 156.1875,-156.1875 86.1007,0 156.1874,70.011 156.1874,156.1875 l 0,234.2811 z"
         id="path3547-6" /></clipPath><linearGradient
       inkscape:collect="always"
       xlink:href="#linearGradient4770"
       id="linearGradient4740"
       gradientUnits="userSpaceOnUse"
       x1="-101.418"
       y1="507.2829"
       x2="686.34039"
       y2="-79.998085" /><linearGradient
       inkscape:collect="always"
       xlink:href="#linearGradient4678"
       id="linearGradient4742"
       gradientUnits="userSpaceOnUse"
       gradientTransform="translate(5.003257,-10.006514)"
       x1="0"
       y1="473.64169"
       x2="585.3811"
       y2="5.0032578" /><clipPath
       clipPathUnits="userSpaceOnUse"
       id="clipPath4746"><rect
         style="opacity:0.997;fill:none;fill-opacity:1;stroke:none;stroke-width:0;stroke-miterlimit:4;stroke-dasharray:none;stroke-dashoffset:0;stroke-opacity:1"
         id="rect4748"
         width="150"
         height="560"
         x="103.34112"
         y="27.867393" /></clipPath><clipPath
       clipPathUnits="userSpaceOnUse"
       id="clipPath4850"><rect
         style="opacity:0.997;fill:none;fill-opacity:1;stroke:none;stroke-width:0;stroke-miterlimit:4;stroke-dasharray:none;stroke-dashoffset:0;stroke-opacity:1"
         id="rect4852"
         width="150.00037"
         height="571.21722"
         x="337.90326"
         y="34.066101" /></clipPath><clipPath
       clipPathUnits="userSpaceOnUse"
       id="clipPath4854"><rect
         style="opacity:0.997;fill:none;fill-opacity:1;stroke:none;stroke-width:0;stroke-miterlimit:4;stroke-dasharray:none;stroke-dashoffset:0;stroke-opacity:1"
         id="rect4856"
         width="150.00037"
         height="571.21722"
         x="337.90326"
         y="34.066101" /></clipPath><clipPath
       clipPathUnits="userSpaceOnUse"
       id="clipPath4892"><rect
         style="opacity:0.997;fill:none;fill-opacity:1;stroke:none;stroke-width:0;stroke-miterlimit:4;stroke-dasharray:none;stroke-dashoffset:0;stroke-opacity:1"
         id="rect4894"
         width="86.420502"
         height="530.41162"
         x="251.375"
         y="51.221985" /></clipPath><linearGradient
       inkscape:collect="always"
       xlink:href="#linearGradient4770"
       id="linearGradient4896"
       gradientUnits="userSpaceOnUse"
       x1="-101.418"
       y1="507.2829"
       x2="686.34039"
       y2="-79.998085" /><linearGradient
       inkscape:collect="always"
       xlink:href="#linearGradient4678"
       id="linearGradient4898"
       gradientUnits="userSpaceOnUse"
       gradientTransform="translate(5.003257,-10.006514)"
       x1="0"
       y1="473.64169"
       x2="585.3811"
       y2="5.0032578" /></defs><sodipodi:namedview
     pagecolor="#ffffff"
     bordercolor="#666666"
     borderopacity="1"
     objecttolerance="10"
     gridtolerance="10"
     guidetolerance="10"
     inkscape:pageopacity="0"
     inkscape:pageshadow="2"
     inkscape:window-width="1321"
     inkscape:window-height="744"
     id="namedview3394"
     showgrid="false"
     showguides="false"
     inkscape:zoom="1.4142136"
     inkscape:cx="42.867176"
     inkscape:cy="427.358"
     inkscape:window-x="45"
     inkscape:window-y="280"
     inkscape:window-maximized="1"
     inkscape:current-layer="g3511"
     fit-margin-top="0"
     fit-margin-left="0"
     fit-margin-right="0"
     fit-margin-bottom="0"><inkscape:grid
       type="xygrid"
       id="grid4792"
       originx="56.148984"
       originy="-31.171481" /></sodipodi:namedview><g
     inkscape:groupmode="layer"
     id="layer5"
     inkscape:label="first"
     style="display:inline"
     transform="translate(-115.47339,-46.367596)"><g
       id="g4730"
       transform="matrix(1,0,0,0.99397308,13.136775,-5.8560832)"
       clip-path="url(#clipPath4746)"><rect
         clip-path="url(#clipPath4786-7)"
         y="-108.30079"
         x="-202.836"
         height="688.69897"
         width="846.72235"
         id="rect4768-3"
         style="display:inline;opacity:1;fill:url(#linearGradient4740);fill-opacity:1;stroke:none;stroke-width:0;stroke-miterlimit:4;stroke-dasharray:none;stroke-dashoffset:0;stroke-opacity:1"
         transform="translate(55.229347,54.761377)" /><rect
         clip-path="url(#clipPath4763-5)"
         y="-91.726387"
         x="-156.76872"
         height="712.13031"
         width="842.21497"
         id="rect4524-9"
         style="display:inline;opacity:1;fill:#6262e0;fill-opacity:0;stroke:none;stroke-width:0;stroke-miterlimit:4;stroke-dasharray:none;stroke-dashoffset:0;stroke-opacity:1"
         transform="translate(55.229412,54.754756)" /><rect
         clip-path="url(#clipPath4759-2)"
         y="-53.368076"
         x="-116.74267"
         height="632.07819"
         width="742.14984"
         id="rect4600-3"
         style="display:inline;opacity:1;fill:#6262e0;fill-opacity:0;stroke:none;stroke-width:0;stroke-miterlimit:4;stroke-dasharray:none;stroke-dashoffset:0;stroke-opacity:1"
         transform="translate(55.229412,54.754756)" /><rect
         clip-path="url(#clipPath4755-7)"
         y="-18.345276"
         x="-65.042343"
         height="588.71661"
         width="688.78174"
         id="rect4676-6"
         style="display:inline;opacity:1;fill:url(#linearGradient4742);fill-opacity:1;stroke:none;stroke-width:0;stroke-miterlimit:4;stroke-dasharray:none;stroke-dashoffset:0;stroke-opacity:1"
         transform="translate(55.229412,54.754756)" /><g
         clip-path="url(#clipPath3545-0)"
         id="layer1-2"
         transform="matrix(0.40976406,0,0,0.40976406,-191.28031,-383.31008)"
         style="display:inline"><path
           style="fill:#000000"
           id="path2470-6"
           d="m 426.49996,2108.1567 0,-206.2768 206.27684,0 206.27684,0 0,206.2768 0,206.2768 -206.27684,0 -206.27684,0 0,-206.2768 z m 353.83674,-0.1919 0,-147.368 -147.36801,0 -147.36801,0 0,147.368 0,147.368 147.36801,0 147.36801,0 0,-147.368 z m -236.01908,0.1919 0,-88.4592 88.45918,0 88.45919,0 0,88.4592 0,88.4591 -88.45919,0 -88.45918,0 0,-88.4591 z m 412.93745,176.7264 0,-29.5503 -29.55036,0 -29.55036,0 0,-58.9088 0,-58.9089 29.55036,0 29.55036,0 0,29.5504 0,29.5503 29.55035,0 29.55038,0 0,-59.1007 0,-59.1007 29.3585,0 29.3584,0 0,-29.3585 0,-29.3584 -58.9088,0 -58.90883,0 0,-29.5504 0,-29.5503 88.45923,0 88.4591,0 0,-29.3585 0,-29.3584 -29.5503,0 -29.5504,0 0,-59.1008 0,-59.1007 -118.00952,0 -118.00954,0 0,29.5504 0,29.5503 -29.35847,0 -29.35847,0 0,-29.5503 0,-29.5504 -29.55036,0 -29.55035,0 0,29.5504 0,29.5503 -29.35847,0 -29.35847,0 0,-59.1007 0,-59.1007 -59.10072,0 -59.10071,0 0,29.5504 0,29.5503 29.55036,0 29.55035,0 0,29.5504 0,29.5503 -29.55035,0 -29.55036,0 0,-29.5503 0,-29.5504 -58.90883,0 -58.90883,0 0,-29.5503 0,-29.5504 29.55036,0 29.55036,0 0,-88.4592 0,-88.4592 58.90883,0 58.90882,0 0,29.5504 0,29.5503 -29.55035,0 -29.55036,0 0,29.5504 0,29.5504 59.10071,0 59.10072,0 0,-29.5504 0,-29.5504 29.35847,0 29.35847,0 0,29.5504 0,29.5504 58.90882,0 58.90883,0 0,-29.5504 0,-29.5504 -29.35847,0 -29.35847,0 0,-29.5503 0,-29.5504 29.35847,0 29.35847,0 0,29.5504 0,29.5503 59.10071,0 59.10072,0 0,29.5504 0,29.5504 29.55035,0 29.55038,0 0,-59.1008 0,-59.1007 -59.10073,0 -59.10072,0 0,-88.4592 0,-88.4591 29.55036,0 29.55036,0 0,-29.3585 0,-29.3585 -29.55036,0 -29.55036,0 0,-29.5503 0,-29.5504 59.10072,0 59.10073,0 0,-58.9088 0,-58.9089 29.3585,0 29.3584,0 0,-29.5503 0,-29.5504 59.1007,0 59.1007,0 0,29.5504 0,29.5503 -29.5503,0 -29.5504,0 0,29.3585 0,29.3585 -29.5503,0 -29.5504,0 0,59.1007 0,59.1007 29.5504,0 29.5503,0 0,-29.5503 0,-29.5504 29.5504,0 29.5503,0 0,58.9088 0,58.9089 -118.0095,0 -118.00953,0 0,58.9088 0,58.9088 29.55035,0 29.55038,0 0,-29.3585 0,-29.3584 29.3585,0 29.3584,0 0,29.3584 0,29.3585 29.5504,0 29.5503,0 0,-29.3585 0,-29.3584 29.5504,0 29.5503,0 0,88.4592 0,88.4591 -29.5503,0 -29.5504,0 0,-29.5503 0,-29.5504 -29.5503,0 -29.5504,0 0,59.1007 0,59.1008 59.1007,0 59.1007,0 0,29.3584 0,29.3585 29.5504,0 29.5504,0 0,-88.4592 0,-88.4592 58.9088,0 58.9088,0 0,29.5504 0,29.5503 29.3585,0 29.3585,0 0,-29.5503 0,-29.5504 29.5503,0 29.5504,0 0,29.5504 0,29.5503 29.5503,0 29.5503,0 0,58.9089 0,58.9088 29.3585,0 29.3585,0 0,-58.9088 0,-58.9089 29.5503,0 29.5504,0 0,118.0096 0,118.0095 -29.5504,0 -29.5503,0 0,29.5504 0,29.5504 29.5503,0 29.5504,0 0,29.3584 0,29.3585 -29.5504,0 -29.5503,0 0,58.9088 0,58.9088 -29.3585,0 -29.3585,0 0,29.5504 0,29.5503 58.9089,0 58.9088,0 0,29.5504 0,29.5503 -88.4592,0 -88.4591,0 0,29.3585 0,29.3585 -29.5504,0 -29.5503,0 0,29.5503 0,29.5504 -176.9184,0 -176.9184,0 0,-58.9088 0,-58.9089 -29.3584,0 -29.3585,0 0,58.9089 0,58.9088 -29.55038,0 -29.55035,0 0,-29.5504 z m 236.01903,-58.9088 0,-29.3585 -29.5503,0 -29.5504,0 0,29.3585 0,29.3585 29.5504,0 29.5503,0 0,-29.3585 z m 235.6354,0 0,-29.3585 29.5503,0 29.5504,0 0,-59.1007 0,-59.1007 29.5503,0 29.5503,0 0,-58.9088 0,-58.9088 29.3585,0 29.3585,0 0,-29.3585 0,-29.3584 -58.9088,0 -58.9088,0 0,-29.5504 0,-29.5504 58.9088,0 58.9088,0 0,-29.5503 0,-29.5504 -29.3585,0 -29.3585,0 0,-29.5503 0,-29.5504 -29.5503,0 -29.5503,0 0,-58.9088 0,-58.9089 -29.5504,0 -29.5503,0 0,58.9089 0,58.9088 -29.3585,0 -29.3585,0 0,-58.9088 0,-58.9089 -29.5503,0 -29.5504,0 0,58.9089 0,58.9088 -29.3585,0 -29.3584,0 0,59.1007 0,59.1007 -29.5504,0 -29.5504,0 0,88.4592 0,88.4592 -29.5503,0 -29.5504,0 0,58.9088 0,58.9088 29.5504,0 29.5503,0 0,-58.9088 0,-58.9088 58.9089,0 58.9088,0 0,58.9088 0,58.9088 -29.3585,0 -29.3584,0 0,29.5504 0,29.5503 29.3584,0 29.3585,0 0,29.3585 0,29.3585 58.9088,0 58.9089,0 0,-29.3585 z m -58.717,-117.8176 0,-88.4592 -29.5503,0 -29.5504,0 0,-29.5504 0,-29.5503 -29.3585,0 -29.3584,0 0,-29.3585 0,-29.3584 29.3584,0 29.3585,0 0,29.3584 0,29.3585 29.5504,0 29.5503,0 0,-88.4592 0,-88.4592 29.3585,0 29.3585,0 0,-29.5503 0,-29.5504 29.5503,0 29.5504,0 0,59.1007 0,59.1007 -29.5504,0 -29.5503,0 0,58.9089 0,58.9088 29.5503,0 29.5504,0 0,58.9088 0,58.9088 -29.5504,0 -29.5503,0 0,59.1007 0,59.1007 -29.3585,0 -29.3585,0 0,-88.4591 z m 58.717,-118.0096 0,-29.5503 -29.3585,0 -29.3585,0 0,29.5503 0,29.5504 29.3585,0 29.3585,0 0,-29.5504 z m -589.85586,-236.019 0,-29.5504 59.10071,0 59.10072,0 0,-29.3585 0,-29.3584 -59.10072,0 -59.10071,0 0,29.3584 0,29.3585 -29.35847,0 -29.35847,0 0,29.5504 0,29.5503 29.35847,0 29.35847,0 0,-29.5503 z m 354.22046,0 0,-29.5504 -29.5503,0 -29.5504,0 0,29.5504 0,29.5503 29.5504,0 29.5503,0 0,-29.5503 z m -472.03811,-58.9089 0,-29.3584 -29.35847,0 -29.35847,0 0,29.3584 0,29.3585 29.35847,0 29.35847,0 0,-29.3585 z m 353.83671,0 0,-29.3584 -29.3584,0 -29.3585,0 0,29.3584 0,29.3585 29.3585,0 29.3584,0 0,-29.3585 z m 0,-177.1102 0,-29.5504 -29.3584,0 -29.3585,0 0,29.5504 0,29.5503 29.3585,0 29.3584,0 0,-29.5503 z m 530.7551,766.7741 0,-29.5503 29.5503,0 29.5504,0 0,29.5503 0,29.5504 -29.5504,0 -29.5503,0 0,-29.5504 z m -707.67345,-412.5536 0,-29.5504 59.10072,0 59.10073,0 0,29.5504 0,29.5504 -59.10073,0 -59.10072,0 0,-29.5504 z m -471.65439,-590.0477 0,-206.2769 206.27684,0 206.27684,0 0,206.2769 0,206.2768 -206.27684,0 -206.27684,0 0,-206.2768 z m 353.83674,0.1919 0,-147.3681 -147.36801,0 -147.36801,0 0,147.3681 0,147.368 147.36801,0 147.36801,0 0,-147.368 z m -236.01908,-0.1919 0,-88.4592 88.45918,0 88.45919,0 0,88.4592 0,88.4592 -88.45919,0 -88.45918,0 0,-88.4592 z m 708.05728,0 0,-206.2769 206.2768,0 206.2768,0 0,206.2769 0,206.2768 -206.2768,0 -206.2768,0 0,-206.2768 z m 353.4529,0.1919 0,-147.3681 -147.368,0 -147.368,0 0,147.3681 0,147.368 147.368,0 147.368,0 0,-147.368 z m -235.6353,-0.1919 0,-88.4592 88.4592,0 88.4591,0 0,88.4592 0,88.4592 -88.4591,0 -88.4592,0 0,-88.4592 z"
           inkscape:connector-curvature="0" /></g></g><rect
       style="display:inline;opacity:1;fill:none;fill-opacity:1;stroke:none;stroke-width:0;stroke-miterlimit:4;stroke-dasharray:none;stroke-dashoffset:0;stroke-opacity:1"
       id="rect4790-1"
       width="354.96759"
       height="688.72198"
       x="-66.400047"
       y="-20.168131" /></g><g
     style="display:inline"
     inkscape:label="second"
     id="g3493"
     inkscape:groupmode="layer"
     transform="translate(-115.47339,-46.367596)"><g
       id="g4872"
       clip-path="url(#clipPath4892)"
       transform="matrix(1,0,0,0.99584961,18.915106,-6.8472751)"><rect
         transform="translate(55.229347,54.761377)"
         style="display:inline;opacity:1;fill:url(#linearGradient3412);fill-opacity:1;stroke:none;stroke-width:0;stroke-miterlimit:4;stroke-dasharray:none;stroke-dashoffset:0;stroke-opacity:1"
         id="rect3495"
         width="846.72235"
         height="688.69897"
         x="-202.836"
         y="-108.30079"
         clip-path="url(#clipPath4786-7)" /><rect
         transform="translate(55.229412,54.754756)"
         style="display:inline;opacity:1;fill:#6262e0;fill-opacity:0;stroke:none;stroke-width:0;stroke-miterlimit:4;stroke-dasharray:none;stroke-dashoffset:0;stroke-opacity:1"
         id="rect3497"
         width="842.21497"
         height="712.13031"
         x="-156.76872"
         y="-91.726387"
         clip-path="url(#clipPath4763-5)" /><rect
         transform="translate(55.229412,54.754756)"
         style="display:inline;opacity:1;fill:#6262e0;fill-opacity:0;stroke:none;stroke-width:0;stroke-miterlimit:4;stroke-dasharray:none;stroke-dashoffset:0;stroke-opacity:1"
         id="rect3499"
         width="742.14984"
         height="632.07819"
         x="-116.74267"
         y="-53.368076"
         clip-path="url(#clipPath4759-2)" /><rect
         transform="translate(55.229412,54.754756)"
         style="display:inline;opacity:1;fill:url(#linearGradient3461);fill-opacity:1;stroke:none;stroke-width:0;stroke-miterlimit:4;stroke-dasharray:none;stroke-dashoffset:0;stroke-opacity:1"
         id="rect3501"
         width="688.78174"
         height="588.71661"
         x="-65.042343"
         y="-18.345276"
         clip-path="url(#clipPath4755-7)" /><g
         style="display:inline"
         transform="matrix(0.40976406,0,0,0.40976406,-191.28031,-383.31008)"
         id="g3503"
         clip-path="url(#clipPath3545-0)"><path
           inkscape:connector-curvature="0"
           d="m 426.49996,2108.1567 0,-206.2768 206.27684,0 206.27684,0 0,206.2768 0,206.2768 -206.27684,0 -206.27684,0 0,-206.2768 z m 353.83674,-0.1919 0,-147.368 -147.36801,0 -147.36801,0 0,147.368 0,147.368 147.36801,0 147.36801,0 0,-147.368 z m -236.01908,0.1919 0,-88.4592 88.45918,0 88.45919,0 0,88.4592 0,88.4591 -88.45919,0 -88.45918,0 0,-88.4591 z m 412.93745,176.7264 0,-29.5503 -29.55036,0 -29.55036,0 0,-58.9088 0,-58.9089 29.55036,0 29.55036,0 0,29.5504 0,29.5503 29.55035,0 29.55038,0 0,-59.1007 0,-59.1007 29.3585,0 29.3584,0 0,-29.3585 0,-29.3584 -58.9088,0 -58.90883,0 0,-29.5504 0,-29.5503 88.45923,0 88.4591,0 0,-29.3585 0,-29.3584 -29.5503,0 -29.5504,0 0,-59.1008 0,-59.1007 -118.00952,0 -118.00954,0 0,29.5504 0,29.5503 -29.35847,0 -29.35847,0 0,-29.5503 0,-29.5504 -29.55036,0 -29.55035,0 0,29.5504 0,29.5503 -29.35847,0 -29.35847,0 0,-59.1007 0,-59.1007 -59.10072,0 -59.10071,0 0,29.5504 0,29.5503 29.55036,0 29.55035,0 0,29.5504 0,29.5503 -29.55035,0 -29.55036,0 0,-29.5503 0,-29.5504 -58.90883,0 -58.90883,0 0,-29.5503 0,-29.5504 29.55036,0 29.55036,0 0,-88.4592 0,-88.4592 58.90883,0 58.90882,0 0,29.5504 0,29.5503 -29.55035,0 -29.55036,0 0,29.5504 0,29.5504 59.10071,0 59.10072,0 0,-29.5504 0,-29.5504 29.35847,0 29.35847,0 0,29.5504 0,29.5504 58.90882,0 58.90883,0 0,-29.5504 0,-29.5504 -29.35847,0 -29.35847,0 0,-29.5503 0,-29.5504 29.35847,0 29.35847,0 0,29.5504 0,29.5503 59.10071,0 59.10072,0 0,29.5504 0,29.5504 29.55035,0 29.55038,0 0,-59.1008 0,-59.1007 -59.10073,0 -59.10072,0 0,-88.4592 0,-88.4591 29.55036,0 29.55036,0 0,-29.3585 0,-29.3585 -29.55036,0 -29.55036,0 0,-29.5503 0,-29.5504 59.10072,0 59.10073,0 0,-58.9088 0,-58.9089 29.3585,0 29.3584,0 0,-29.5503 0,-29.5504 59.1007,0 59.1007,0 0,29.5504 0,29.5503 -29.5503,0 -29.5504,0 0,29.3585 0,29.3585 -29.5503,0 -29.5504,0 0,59.1007 0,59.1007 29.5504,0 29.5503,0 0,-29.5503 0,-29.5504 29.5504,0 29.5503,0 0,58.9088 0,58.9089 -118.0095,0 -118.00953,0 0,58.9088 0,58.9088 29.55035,0 29.55038,0 0,-29.3585 0,-29.3584 29.3585,0 29.3584,0 0,29.3584 0,29.3585 29.5504,0 29.5503,0 0,-29.3585 0,-29.3584 29.5504,0 29.5503,0 0,88.4592 0,88.4591 -29.5503,0 -29.5504,0 0,-29.5503 0,-29.5504 -29.5503,0 -29.5504,0 0,59.1007 0,59.1008 59.1007,0 59.1007,0 0,29.3584 0,29.3585 29.5504,0 29.5504,0 0,-88.4592 0,-88.4592 58.9088,0 58.9088,0 0,29.5504 0,29.5503 29.3585,0 29.3585,0 0,-29.5503 0,-29.5504 29.5503,0 29.5504,0 0,29.5504 0,29.5503 29.5503,0 29.5503,0 0,58.9089 0,58.9088 29.3585,0 29.3585,0 0,-58.9088 0,-58.9089 29.5503,0 29.5504,0 0,118.0096 0,118.0095 -29.5504,0 -29.5503,0 0,29.5504 0,29.5504 29.5503,0 29.5504,0 0,29.3584 0,29.3585 -29.5504,0 -29.5503,0 0,58.9088 0,58.9088 -29.3585,0 -29.3585,0 0,29.5504 0,29.5503 58.9089,0 58.9088,0 0,29.5504 0,29.5503 -88.4592,0 -88.4591,0 0,29.3585 0,29.3585 -29.5504,0 -29.5503,0 0,29.5503 0,29.5504 -176.9184,0 -176.9184,0 0,-58.9088 0,-58.9089 -29.3584,0 -29.3585,0 0,58.9089 0,58.9088 -29.55038,0 -29.55035,0 0,-29.5504 z m 236.01903,-58.9088 0,-29.3585 -29.5503,0 -29.5504,0 0,29.3585 0,29.3585 29.5504,0 29.5503,0 0,-29.3585 z m 235.6354,0 0,-29.3585 29.5503,0 29.5504,0 0,-59.1007 0,-59.1007 29.5503,0 29.5503,0 0,-58.9088 0,-58.9088 29.3585,0 29.3585,0 0,-29.3585 0,-29.3584 -58.9088,0 -58.9088,0 0,-29.5504 0,-29.5504 58.9088,0 58.9088,0 0,-29.5503 0,-29.5504 -29.3585,0 -29.3585,0 0,-29.5503 0,-29.5504 -29.5503,0 -29.5503,0 0,-58.9088 0,-58.9089 -29.5504,0 -29.5503,0 0,58.9089 0,58.9088 -29.3585,0 -29.3585,0 0,-58.9088 0,-58.9089 -29.5503,0 -29.5504,0 0,58.9089 0,58.9088 -29.3585,0 -29.3584,0 0,59.1007 0,59.1007 -29.5504,0 -29.5504,0 0,88.4592 0,88.4592 -29.5503,0 -29.5504,0 0,58.9088 0,58.9088 29.5504,0 29.5503,0 0,-58.9088 0,-58.9088 58.9089,0 58.9088,0 0,58.9088 0,58.9088 -29.3585,0 -29.3584,0 0,29.5504 0,29.5503 29.3584,0 29.3585,0 0,29.3585 0,29.3585 58.9088,0 58.9089,0 0,-29.3585 z m -58.717,-117.8176 0,-88.4592 -29.5503,0 -29.5504,0 0,-29.5504 0,-29.5503 -29.3585,0 -29.3584,0 0,-29.3585 0,-29.3584 29.3584,0 29.3585,0 0,29.3584 0,29.3585 29.5504,0 29.5503,0 0,-88.4592 0,-88.4592 29.3585,0 29.3585,0 0,-29.5503 0,-29.5504 29.5503,0 29.5504,0 0,59.1007 0,59.1007 -29.5504,0 -29.5503,0 0,58.9089 0,58.9088 29.5503,0 29.5504,0 0,58.9088 0,58.9088 -29.5504,0 -29.5503,0 0,59.1007 0,59.1007 -29.3585,0 -29.3585,0 0,-88.4591 z m 58.717,-118.0096 0,-29.5503 -29.3585,0 -29.3585,0 0,29.5503 0,29.5504 29.3585,0 29.3585,0 0,-29.5504 z m -589.85586,-236.019 0,-29.5504 59.10071,0 59.10072,0 0,-29.3585 0,-29.3584 -59.10072,0 -59.10071,0 0,29.3584 0,29.3585 -29.35847,0 -29.35847,0 0,29.5504 0,29.5503 29.35847,0 29.35847,0 0,-29.5503 z m 354.22046,0 0,-29.5504 -29.5503,0 -29.5504,0 0,29.5504 0,29.5503 29.5504,0 29.5503,0 0,-29.5503 z m -472.03811,-58.9089 0,-29.3584 -29.35847,0 -29.35847,0 0,29.3584 0,29.3585 29.35847,0 29.35847,0 0,-29.3585 z m 353.83671,0 0,-29.3584 -29.3584,0 -29.3585,0 0,29.3584 0,29.3585 29.3585,0 29.3584,0 0,-29.3585 z m 0,-177.1102 0,-29.5504 -29.3584,0 -29.3585,0 0,29.5504 0,29.5503 29.3585,0 29.3584,0 0,-29.5503 z m 530.7551,766.7741 0,-29.5503 29.5503,0 29.5504,0 0,29.5503 0,29.5504 -29.5504,0 -29.5503,0 0,-29.5504 z m -707.67345,-412.5536 0,-29.5504 59.10072,0 59.10073,0 0,29.5504 0,29.5504 -59.10073,0 -59.10072,0 0,-29.5504 z m -471.65439,-590.0477 0,-206.2769 206.27684,0 206.27684,0 0,206.2769 0,206.2768 -206.27684,0 -206.27684,0 0,-206.2768 z m 353.83674,0.1919 0,-147.3681 -147.36801,0 -147.36801,0 0,147.3681 0,147.368 147.36801,0 147.36801,0 0,-147.368 z m -236.01908,-0.1919 0,-88.4592 88.45918,0 88.45919,0 0,88.4592 0,88.4592 -88.45919,0 -88.45918,0 0,-88.4592 z m 708.05728,0 0,-206.2769 206.2768,0 206.2768,0 0,206.2769 0,206.2768 -206.2768,0 -206.2768,0 0,-206.2768 z m 353.4529,0.1919 0,-147.3681 -147.368,0 -147.368,0 0,147.3681 0,147.368 147.368,0 147.368,0 0,-147.368 z m -235.6353,-0.1919 0,-88.4592 88.4592,0 88.4591,0 0,88.4592 0,88.4592 -88.4591,0 -88.4592,0 0,-88.4592 z"
           id="path3505"
           style="fill:#000000" /></g></g></g><g
     inkscape:groupmode="layer"
     id="g3511"
     inkscape:label="third"
     style="display:inline"
     transform="translate(-115.47339,-46.367596)"><g
       id="g4842"
       clip-path="url(#clipPath4854)"
       transform="matrix(1,0,0,0.99539305,23.41663,-6.5726571)"><rect
         clip-path="url(#clipPath4786-7)"
         y="-108.30079"
         x="-202.836"
         height="688.69897"
         width="846.72235"
         id="rect3513"
         style="display:inline;opacity:1;fill:url(#linearGradient4896);fill-opacity:1;stroke:none;stroke-width:0;stroke-miterlimit:4;stroke-dasharray:none;stroke-dashoffset:0;stroke-opacity:1"
         transform="translate(55.229347,54.761377)" /><rect
         clip-path="url(#clipPath4763-5)"
         y="-91.726387"
         x="-156.76872"
         height="712.13031"
         width="842.21497"
         id="rect3515"
         style="display:inline;opacity:1;fill:#6262e0;fill-opacity:0;stroke:none;stroke-width:0;stroke-miterlimit:4;stroke-dasharray:none;stroke-dashoffset:0;stroke-opacity:1"
         transform="translate(55.229412,54.754756)" /><rect
         clip-path="url(#clipPath4759-2)"
         y="-53.368076"
         x="-116.74267"
         height="632.07819"
         width="742.14984"
         id="rect3517"
         style="display:inline;opacity:1;fill:#6262e0;fill-opacity:0;stroke:none;stroke-width:0;stroke-miterlimit:4;stroke-dasharray:none;stroke-dashoffset:0;stroke-opacity:1"
         transform="translate(55.229412,54.754756)" /><rect
         clip-path="url(#clipPath4755-7)"
         y="-18.345276"
         x="-65.042343"
         height="588.71661"
         width="688.78174"
         id="rect3519"
         style="display:inline;opacity:1;fill:url(#linearGradient4898);fill-opacity:1;stroke:none;stroke-width:0;stroke-miterlimit:4;stroke-dasharray:none;stroke-dashoffset:0;stroke-opacity:1"
         transform="translate(55.229412,54.754756)" /><g
         clip-path="url(#clipPath3545-0)"
         id="g3521"
         transform="matrix(0.40976406,0,0,0.40976406,-191.28031,-383.31008)"
         style="display:inline"><path
           style="fill:#000000"
           id="path3523"
           d="m 426.49996,2108.1567 0,-206.2768 206.27684,0 206.27684,0 0,206.2768 0,206.2768 -206.27684,0 -206.27684,0 0,-206.2768 z m 353.83674,-0.1919 0,-147.368 -147.36801,0 -147.36801,0 0,147.368 0,147.368 147.36801,0 147.36801,0 0,-147.368 z m -236.01908,0.1919 0,-88.4592 88.45918,0 88.45919,0 0,88.4592 0,88.4591 -88.45919,0 -88.45918,0 0,-88.4591 z m 412.93745,176.7264 0,-29.5503 -29.55036,0 -29.55036,0 0,-58.9088 0,-58.9089 29.55036,0 29.55036,0 0,29.5504 0,29.5503 29.55035,0 29.55038,0 0,-59.1007 0,-59.1007 29.3585,0 29.3584,0 0,-29.3585 0,-29.3584 -58.9088,0 -58.90883,0 0,-29.5504 0,-29.5503 88.45923,0 88.4591,0 0,-29.3585 0,-29.3584 -29.5503,0 -29.5504,0 0,-59.1008 0,-59.1007 -118.00952,0 -118.00954,0 0,29.5504 0,29.5503 -29.35847,0 -29.35847,0 0,-29.5503 0,-29.5504 -29.55036,0 -29.55035,0 0,29.5504 0,29.5503 -29.35847,0 -29.35847,0 0,-59.1007 0,-59.1007 -59.10072,0 -59.10071,0 0,29.5504 0,29.5503 29.55036,0 29.55035,0 0,29.5504 0,29.5503 -29.55035,0 -29.55036,0 0,-29.5503 0,-29.5504 -58.90883,0 -58.90883,0 0,-29.5503 0,-29.5504 29.55036,0 29.55036,0 0,-88.4592 0,-88.4592 58.90883,0 58.90882,0 0,29.5504 0,29.5503 -29.55035,0 -29.55036,0 0,29.5504 0,29.5504 59.10071,0 59.10072,0 0,-29.5504 0,-29.5504 29.35847,0 29.35847,0 0,29.5504 0,29.5504 58.90882,0 58.90883,0 0,-29.5504 0,-29.5504 -29.35847,0 -29.35847,0 0,-29.5503 0,-29.5504 29.35847,0 29.35847,0 0,29.5504 0,29.5503 59.10071,0 59.10072,0 0,29.5504 0,29.5504 29.55035,0 29.55038,0 0,-59.1008 0,-59.1007 -59.10073,0 -59.10072,0 0,-88.4592 0,-88.4591 29.55036,0 29.55036,0 0,-29.3585 0,-29.3585 -29.55036,0 -29.55036,0 0,-29.5503 0,-29.5504 59.10072,0 59.10073,0 0,-58.9088 0,-58.9089 29.3585,0 29.3584,0 0,-29.5503 0,-29.5504 59.1007,0 59.1007,0 0,29.5504 0,29.5503 -29.5503,0 -29.5504,0 0,29.3585 0,29.3585 -29.5503,0 -29.5504,0 0,59.1007 0,59.1007 29.5504,0 29.5503,0 0,-29.5503 0,-29.5504 29.5504,0 29.5503,0 0,58.9088 0,58.9089 -118.0095,0 -118.00953,0 0,58.9088 0,58.9088 29.55035,0 29.55038,0 0,-29.3585 0,-29.3584 29.3585,0 29.3584,0 0,29.3584 0,29.3585 29.5504,0 29.5503,0 0,-29.3585 0,-29.3584 29.5504,0 29.5503,0 0,88.4592 0,88.4591 -29.5503,0 -29.5504,0 0,-29.5503 0,-29.5504 -29.5503,0 -29.5504,0 0,59.1007 0,59.1008 59.1007,0 59.1007,0 0,29.3584 0,29.3585 29.5504,0 29.5504,0 0,-88.4592 0,-88.4592 58.9088,0 58.9088,0 0,29.5504 0,29.5503 29.3585,0 29.3585,0 0,-29.5503 0,-29.5504 29.5503,0 29.5504,0 0,29.5504 0,29.5503 29.5503,0 29.5503,0 0,58.9089 0,58.9088 29.3585,0 29.3585,0 0,-58.9088 0,-58.9089 29.5503,0 29.5504,0 0,118.0096 0,118.0095 -29.5504,0 -29.5503,0 0,29.5504 0,29.5504 29.5503,0 29.5504,0 0,29.3584 0,29.3585 -29.5504,0 -29.5503,0 0,58.9088 0,58.9088 -29.3585,0 -29.3585,0 0,29.5504 0,29.5503 58.9089,0 58.9088,0 0,29.5504 0,29.5503 -88.4592,0 -88.4591,0 0,29.3585 0,29.3585 -29.5504,0 -29.5503,0 0,29.5503 0,29.5504 -176.9184,0 -176.9184,0 0,-58.9088 0,-58.9089 -29.3584,0 -29.3585,0 0,58.9089 0,58.9088 -29.55038,0 -29.55035,0 0,-29.5504 z m 236.01903,-58.9088 0,-29.3585 -29.5503,0 -29.5504,0 0,29.3585 0,29.3585 29.5504,0 29.5503,0 0,-29.3585 z m 235.6354,0 0,-29.3585 29.5503,0 29.5504,0 0,-59.1007 0,-59.1007 29.5503,0 29.5503,0 0,-58.9088 0,-58.9088 29.3585,0 29.3585,0 0,-29.3585 0,-29.3584 -58.9088,0 -58.9088,0 0,-29.5504 0,-29.5504 58.9088,0 58.9088,0 0,-29.5503 0,-29.5504 -29.3585,0 -29.3585,0 0,-29.5503 0,-29.5504 -29.5503,0 -29.5503,0 0,-58.9088 0,-58.9089 -29.5504,0 -29.5503,0 0,58.9089 0,58.9088 -29.3585,0 -29.3585,0 0,-58.9088 0,-58.9089 -29.5503,0 -29.5504,0 0,58.9089 0,58.9088 -29.3585,0 -29.3584,0 0,59.1007 0,59.1007 -29.5504,0 -29.5504,0 0,88.4592 0,88.4592 -29.5503,0 -29.5504,0 0,58.9088 0,58.9088 29.5504,0 29.5503,0 0,-58.9088 0,-58.9088 58.9089,0 58.9088,0 0,58.9088 0,58.9088 -29.3585,0 -29.3584,0 0,29.5504 0,29.5503 29.3584,0 29.3585,0 0,29.3585 0,29.3585 58.9088,0 58.9089,0 0,-29.3585 z m -58.717,-117.8176 0,-88.4592 -29.5503,0 -29.5504,0 0,-29.5504 0,-29.5503 -29.3585,0 -29.3584,0 0,-29.3585 0,-29.3584 29.3584,0 29.3585,0 0,29.3584 0,29.3585 29.5504,0 29.5503,0 0,-88.4592 0,-88.4592 29.3585,0 29.3585,0 0,-29.5503 0,-29.5504 29.5503,0 29.5504,0 0,59.1007 0,59.1007 -29.5504,0 -29.5503,0 0,58.9089 0,58.9088 29.5503,0 29.5504,0 0,58.9088 0,58.9088 -29.5504,0 -29.5503,0 0,59.1007 0,59.1007 -29.3585,0 -29.3585,0 0,-88.4591 z m 58.717,-118.0096 0,-29.5503 -29.3585,0 -29.3585,0 0,29.5503 0,29.5504 29.3585,0 29.3585,0 0,-29.5504 z m -589.85586,-236.019 0,-29.5504 59.10071,0 59.10072,0 0,-29.3585 0,-29.3584 -59.10072,0 -59.10071,0 0,29.3584 0,29.3585 -29.35847,0 -29.35847,0 0,29.5504 0,29.5503 29.35847,0 29.35847,0 0,-29.5503 z m 354.22046,0 0,-29.5504 -29.5503,0 -29.5504,0 0,29.5504 0,29.5503 29.5504,0 29.5503,0 0,-29.5503 z m -472.03811,-58.9089 0,-29.3584 -29.35847,0 -29.35847,0 0,29.3584 0,29.3585 29.35847,0 29.35847,0 0,-29.3585 z m 353.83671,0 0,-29.3584 -29.3584,0 -29.3585,0 0,29.3584 0,29.3585 29.3585,0 29.3584,0 0,-29.3585 z m 0,-177.1102 0,-29.5504 -29.3584,0 -29.3585,0 0,29.5504 0,29.5503 29.3585,0 29.3584,0 0,-29.5503 z m 530.7551,766.7741 0,-29.5503 29.5503,0 29.5504,0 0,29.5503 0,29.5504 -29.5504,0 -29.5503,0 0,-29.5504 z m -707.67345,-412.5536 0,-29.5504 59.10072,0 59.10073,0 0,29.5504 0,29.5504 -59.10073,0 -59.10072,0 0,-29.5504 z m -471.65439,-590.0477 0,-206.2769 206.27684,0 206.27684,0 0,206.2769 0,206.2768 -206.27684,0 -206.27684,0 0,-206.2768 z m 353.83674,0.1919 0,-147.3681 -147.36801,0 -147.36801,0 0,147.3681 0,147.368 147.36801,0 147.36801,0 0,-147.368 z m -236.01908,-0.1919 0,-88.4592 88.45918,0 88.45919,0 0,88.4592 0,88.4592 -88.45919,0 -88.45918,0 0,-88.4592 z m 708.05728,0 0,-206.2769 206.2768,0 206.2768,0 0,206.2769 0,206.2768 -206.2768,0 -206.2768,0 0,-206.2768 z m 353.4529,0.1919 0,-147.3681 -147.368,0 -147.368,0 0,147.3681 0,147.368 147.368,0 147.368,0 0,-147.368 z m -235.6353,-0.1919 0,-88.4592 88.4592,0 88.4591,0 0,88.4592 0,88.4592 -88.4591,0 -88.4592,0 0,-88.4592 z"
           inkscape:connector-curvature="0" /></g></g><rect
       style="display:inline;opacity:1;fill:none;fill-opacity:1;stroke:none;stroke-width:0;stroke-miterlimit:4;stroke-dasharray:none;stroke-dashoffset:0;stroke-opacity:1"
       id="rect3527-2"
       width="160"
       height="520"
       x="135.22232"
       y="-173.26949" /><rect
       style="opacity:0.997;fill:none;fill-opacity:1;stroke:none;stroke-width:0;stroke-miterlimit:4;stroke-dasharray:none;stroke-dashoffset:0;stroke-opacity:1"
       id="rect4812"
       width="160"
       height="520"
       x="331.62238"
       y="66.898643"
       clip-path="url(#clipPath4850)" /><rect
       style="opacity:0.997;fill:none;fill-opacity:1;stroke:none;stroke-width:0;stroke-miterlimit:4;stroke-dasharray:none;stroke-dashoffset:0;stroke-opacity:1"
       id="rect4814"
       width="554.53699"
       height="563.74261"
       x="332.83557"
       y="22.656002" /><rect
       style="opacity:0.997;fill:none;fill-opacity:1;stroke:none;stroke-width:0;stroke-miterlimit:4;stroke-dasharray:none;stroke-dashoffset:0;stroke-opacity:1"
       id="rect5227"
       width="395.64645"
       height="510.51474"
       x="115.97592"
       y="46.383949"
       ry="2.2776744e-06" /><rect
       style="opacity:0.997;fill:none;fill-opacity:1;stroke:none;stroke-width:0;stroke-miterlimit:4;stroke-dasharray:none;stroke-dashoffset:0;stroke-opacity:1"
       id="rect5229"
       width="585.48438"
       height="769.33215"
       x="114.05918"
       y="-8.7867374"
       ry="2.2776701e-06" /><rect
       style="opacity:0.997;fill:none;fill-opacity:1;stroke:none;stroke-width:0;stroke-miterlimit:4;stroke-dasharray:none;stroke-dashoffset:0;stroke-opacity:1"
       id="rect5231"
       width="395.72241"
       height="509.35959"
       x="115.47339"
       y="46.367596"
       ry="2.2776701e-06" /></g></svg>